<?xml version="1.0" encoding="utf-8"?>
<!-- Generator: Adobe Illustrator 19.2.0, SVG Export Plug-In . SVG Version: 6.00 Build 0)  -->
<svg version="1.1" id="Layer_1" xmlns="http://www.w3.org/2000/svg" xmlns:xlink="http://www.w3.org/1999/xlink" x="0px" y="0px"
	 viewBox="0 0 1522.6 1536" style="enable-background:new 0 0 1522.6 1536;" xml:space="preserve">
<style type="text/css">
	.st0{opacity:0.4;fill:none;stroke:#FFFFFF;stroke-width:7;stroke-miterlimit:10;}
	.st1{opacity:0.4;}
	.st2{fill:none;stroke:#FFFFFF;stroke-width:7;stroke-miterlimit:10;}
	.st3{opacity:0.4;fill:url(#SVGID_1_);stroke:#FFFFFF;stroke-width:7;stroke-miterlimit:10;}
</style>
<path class="st0" d="M249.7,564.9c-15.2,32.3-30.4,64.7-45.7,97"/>
<path class="st0" d="M537.8,591.4c-1.4,35.6-2.8,71.1-4.2,106.7"/>
<path class="st0" d="M289.1,730c8.5,34.6,17,69.2,25.6,103.8"/>
<path class="st0" d="M340,850.7c25,19.9,50.1,39.7,75.1,59.6"/>
<path class="st0" d="M605.8,906.2c27.1-17.1,54.1-34.3,81.2-51.4"/>
<path class="st0" d="M514.3,1078.2c1.3-31.5,2.5-63,3.8-94.4"/>
<path class="st0" d="M459,1177.5c-25.7-19-51.5-38-77.2-57"/>
<path class="st0" d="M427.7,591.4c-21.2,23.5-42.3,47-63.5,70.5"/>
<path class="st0" d="M136.7,746.4c-21.2,23.5-42.3,47-63.5,70.5"/>
<path class="st0" d="M716.1,658.6c-17.4,26.3-34.8,52.5-52.2,78.8"/>
<path class="st0" d="M501.1,519.5c-30.8-16.8-61.6-33.5-92.4-50.3"/>
<path class="st0" d="M574.4,845.3c-37.5-12.4-74.9-24.9-112.4-37.3"/>
<g class="st1">
	<path class="st2" d="M108,888.5c-1.4,35.6-2.8,71.1-4.2,106.7"/>
	<path class="st2" d="M176.1,1203.3c27.1-17.1,54.1-34.3,81.2-51.4"/>
	<path class="st2" d="M84.5,1375.3c1.3-31.5,2.5-63,3.8-94.4"/>
	<path class="st2" d="M286.4,955.8c-17.4,26.3-34.8,52.5-52.2,78.8"/>
	<path class="st2" d="M144.6,1142.5c-37.5-12.4-74.9-24.9-112.4-37.3"/>
</g>
<g class="st1">
	<path class="st2" d="M130.9,78.5c-1.4,35.6-2.8,71.1-4.2,106.7"/>
	<path class="st2" d="M199,393.3c27.1-17.1,54.1-34.3,81.2-51.4"/>
	<path class="st2" d="M107.5,565.3c1.3-31.5,2.5-63,3.8-94.4"/>
	<path class="st2" d="M309.3,145.8c-17.4,26.3-34.8,52.5-52.2,78.8"/>
	<path class="st2" d="M167.6,332.5c-37.5-12.4-74.9-24.9-112.4-37.3"/>
</g>
<path class="st0" d="M694.7,1140.4c-15.2,32.3-30.4,64.7-45.7,97"/>
<path class="st0" d="M982.7,1166.9c-1.4,35.6-2.8,71.1-4.2,106.7"/>
<path class="st0" d="M734,1305.5c8.5,34.6,17,69.2,25.6,103.8"/>
<path class="st0" d="M785,1426.2c25,19.9,50.1,39.7,75.1,59.6"/>
<path class="st0" d="M1050.8,1481.7c27.1-17.1,54.1-34.3,81.2-51.4"/>
<path class="st0" d="M872.6,1166.9c-21.2,23.5-42.3,47-63.5,70.5"/>
<path class="st0" d="M1161.1,1234.1c-17.4,26.3-34.8,52.5-52.2,78.8"/>
<path class="st0" d="M946,1095c-30.8-16.8-61.6-33.5-92.4-50.3"/>
<path class="st0" d="M1019.3,1420.8c-37.5-12.4-74.9-24.9-112.4-37.3"/>
<path class="st0" d="M264.9,1417.5c-15.2,32.3-30.4,64.7-45.7,97"/>
<path class="st0" d="M552.9,1450c-4.6,25.6-8.3,46.4-13,72"/>
<path class="st0" d="M442.8,1444c-21.2,23.5-42.3,47-63.5,70.5"/>
<path class="st0" d="M496.2,1362.1c-30.8-16.8-61.6-33.5-92.4-50.3"/>
<path class="st0" d="M1168.6,862c-15.2,32.3-30.4,64.7-45.7,97"/>
<path class="st0" d="M1456.6,888.5c-1.4,35.6-2.8,71.1-4.2,106.7"/>
<path class="st0" d="M1208,1027.2c8.5,34.6,17,69.2,25.6,103.8"/>
<path class="st0" d="M1258.9,1147.8c25,19.9,50.1,39.7,75.1,59.6"/>
<path class="st0" d="M1433.1,1375.3c1.3-31.5,2.5-63,3.8-94.4"/>
<path class="st0" d="M1377.9,1474.6c-25.7-19-51.5-38-77.2-57"/>
<path class="st0" d="M1346.5,888.5c-21.2,23.5-42.3,47-63.5,70.5"/>
<path class="st0" d="M1419.9,816.6c-30.8-16.8-61.6-33.5-92.4-50.3"/>
<path class="st0" d="M1493.3,1142.5c-37.5-12.4-74.9-24.9-112.4-37.3"/>
<path class="st0" d="M1191.6,74c-15.2,32.3-30.4,64.7-45.7,97"/>
<path class="st0" d="M1479.6,100.5c-1.4,35.6-2.8,71.1-4.2,106.7"/>
<path class="st0" d="M1230.9,239.1c8.5,34.6,17,69.2,25.6,103.8"/>
<path class="st0" d="M1281.9,359.8c25,19.9,50.1,39.7,75.1,59.6"/>
<path class="st0" d="M1456.1,587.3c1.3-31.5,2.5-63,3.8-94.4"/>
<path class="st0" d="M1400.8,686.6c-25.7-19-51.5-38-77.2-57"/>
<path class="st0" d="M1369.5,100.5c-21.2,23.5-42.3,47-63.5,70.5"/>
<path class="st0" d="M1496.3,354.5c-37.7-12.5-74.6-24.8-112.4-37.3"/>
<path class="st0" d="M761.8,371.1c-15.2,32.3-30.4,64.7-45.7,97"/>
<path class="st0" d="M1049.8,397.6c-1.4,35.6-2.8,71.1-4.2,106.7"/>
<path class="st0" d="M801.2,536.3c8.5,34.6,17,69.2,25.6,103.8"/>
<path class="st0" d="M852.1,656.9c25,19.9,50.1,39.7,75.1,59.6"/>
<path class="st0" d="M1117.9,712.4c27.1-17.1,54.1-34.3,81.2-51.4"/>
<path class="st0" d="M1026.3,884.4c1.3-31.5,2.5-63,3.8-94.4"/>
<path class="st0" d="M971.1,983.8c-25.7-19-51.5-38-77.2-57"/>
<path class="st0" d="M939.7,397.6c-21.2,23.5-42.3,47-63.5,70.5"/>
<path class="st0" d="M1228.2,464.9c-17.4,26.3-34.8,52.5-52.2,78.8"/>
<path class="st0" d="M1013.1,325.7c-30.8-16.8-61.6-33.5-92.4-50.3"/>
<path class="st0" d="M1086.5,651.6c-37.5-12.4-74.9-24.9-112.4-37.3"/>
<linearGradient id="SVGID_1_" gradientUnits="userSpaceOnUse" x1="1083.0208" y1="97.6634" x2="1074.9265" y2="267.6416">
	<stop  offset="0" style="stop-color:#FFFFFF"/>
	<stop  offset="1" style="stop-color:#000000"/>
</linearGradient>
<path class="st3" d="M1083.5,93.8c3.4-84.9-0.4,11.2,3-73.8"/>
<path class="st0" d="M1023,128.6c-25.7-19-51.5-38-77.2-57"/>
<g class="st1">
	<path class="st2" d="M431.9,14.4c8.5,34.6,8.5,34.6,17,69.2"/>
	<path class="st2" d="M474.3,100.4c25,19.9,50.1,39.7,75.1,59.6"/>
	<path class="st2" d="M740.1,155.9c27.1-17.1,54.1-34.3,81.2-51.4"/>
	<path class="st2" d="M648.5,327.9c1.3-31.5,2.5-63,3.8-94.4"/>
	<path class="st2" d="M593.2,427.3c-25.7-19-51.5-38-77.2-57"/>
	<path class="st2" d="M708.7,95.1c-37.5-12.4-74.9-24.9-112.4-37.3"/>
</g>
</svg>
